<svg width="3000" height="111" viewBox="0 0 806 111" fill="none" xmlns="http://www.w3.org/2000/svg">
<path d="M4.12598 37.4531H15.8936C18.5628 37.4531 20.8171 37.86 22.6562 38.6738C24.5117 39.4876 25.9196 40.6921 26.8799 42.2871C27.8564 43.8659 28.3447 45.8109 28.3447 48.1221C28.3447 49.7497 28.0111 51.2389 27.3438 52.5898C26.6927 53.9245 25.7487 55.0638 24.5117 56.0078C23.291 56.9355 21.8262 57.6273 20.1172 58.083L18.7988 58.5957H7.73926L7.69043 54.7627H16.04C17.7327 54.7627 19.1406 54.4697 20.2637 53.8838C21.3867 53.2816 22.2331 52.4759 22.8027 51.4668C23.3724 50.4577 23.6572 49.3428 23.6572 48.1221C23.6572 46.7549 23.3887 45.5586 22.8516 44.5332C22.3145 43.5078 21.4681 42.7184 20.3125 42.165C19.1732 41.5954 17.7002 41.3105 15.8936 41.3105H8.83789V73H4.12598V37.4531ZM24.9023 73L16.2598 56.8867L21.167 56.8623L29.9316 72.707V73H24.9023ZM33.0566 60.085V59.5234C33.0566 57.6191 33.3333 55.8532 33.8867 54.2256C34.4401 52.5817 35.2376 51.1576 36.2793 49.9531C37.321 48.7324 38.5824 47.7884 40.0635 47.1211C41.5446 46.4375 43.2048 46.0957 45.0439 46.0957C46.8994 46.0957 48.5677 46.4375 50.0488 47.1211C51.5462 47.7884 52.8158 48.7324 53.8574 49.9531C54.9154 51.1576 55.721 52.5817 56.2744 54.2256C56.8278 55.8532 57.1045 57.6191 57.1045 59.5234V60.085C57.1045 61.9893 56.8278 63.7552 56.2744 65.3828C55.721 67.0104 54.9154 68.4346 53.8574 69.6553C52.8158 70.8597 51.5544 71.8037 50.0732 72.4873C48.6084 73.1546 46.9482 73.4883 45.0928 73.4883C43.2373 73.4883 41.569 73.1546 40.0879 72.4873C38.6068 71.8037 37.3372 70.8597 36.2793 69.6553C35.2376 68.4346 34.4401 67.0104 33.8867 65.3828C33.3333 63.7552 33.0566 61.9893 33.0566 60.085ZM37.5732 59.5234V60.085C37.5732 61.4033 37.7279 62.6484 38.0371 63.8203C38.3464 64.9759 38.8102 66.0013 39.4287 66.8965C40.0635 67.7917 40.8529 68.4997 41.7969 69.0205C42.7409 69.5251 43.8395 69.7773 45.0928 69.7773C46.3298 69.7773 47.4121 69.5251 48.3398 69.0205C49.2839 68.4997 50.0651 67.7917 50.6836 66.8965C51.3021 66.0013 51.766 64.9759 52.0752 63.8203C52.4007 62.6484 52.5635 61.4033 52.5635 60.085V59.5234C52.5635 58.2214 52.4007 56.9925 52.0752 55.8369C51.766 54.665 51.2939 53.6315 50.6592 52.7363C50.0407 51.8249 49.2594 51.1087 48.3154 50.5879C47.3877 50.0671 46.2972 49.8066 45.0439 49.8066C43.807 49.8066 42.7165 50.0671 41.7725 50.5879C40.8447 51.1087 40.0635 51.8249 39.4287 52.7363C38.8102 53.6315 38.3464 54.665 38.0371 55.8369C37.7279 56.9925 37.5732 58.2214 37.5732 59.5234ZM73.3398 69.7773C74.4141 69.7773 75.4069 69.5576 76.3184 69.1182C77.2298 68.6787 77.9785 68.0765 78.5645 67.3115C79.1504 66.5303 79.484 65.6432 79.5654 64.6504H83.8623C83.7809 66.2129 83.252 67.6696 82.2754 69.0205C81.3151 70.3551 80.0537 71.4375 78.4912 72.2676C76.9287 73.0814 75.2116 73.4883 73.3398 73.4883C71.3542 73.4883 69.6208 73.1383 68.1396 72.4385C66.6748 71.7386 65.4541 70.7783 64.4775 69.5576C63.5173 68.3369 62.793 66.9372 62.3047 65.3584C61.8327 63.7633 61.5967 62.0788 61.5967 60.3047V59.2793C61.5967 57.5052 61.8327 55.8288 62.3047 54.25C62.793 52.6549 63.5173 51.2471 64.4775 50.0264C65.4541 48.8057 66.6748 47.8454 68.1396 47.1455C69.6208 46.4456 71.3542 46.0957 73.3398 46.0957C75.4069 46.0957 77.2135 46.5189 78.7598 47.3652C80.306 48.1953 81.5186 49.3346 82.3975 50.7832C83.2926 52.2155 83.7809 53.8431 83.8623 55.666H79.5654C79.484 54.5755 79.1748 53.5908 78.6377 52.7119C78.1169 51.833 77.4007 51.1331 76.4893 50.6123C75.5941 50.0752 74.5443 49.8066 73.3398 49.8066C71.9564 49.8066 70.7926 50.0833 69.8486 50.6367C68.9209 51.1738 68.1803 51.9062 67.627 52.834C67.0898 53.7454 66.6992 54.7627 66.4551 55.8857C66.2272 56.9925 66.1133 58.1237 66.1133 59.2793V60.3047C66.1133 61.4603 66.2272 62.5996 66.4551 63.7227C66.6829 64.8457 67.0654 65.863 67.6025 66.7744C68.1559 67.6859 68.8965 68.4183 69.8242 68.9717C70.7682 69.5088 71.9401 69.7773 73.3398 69.7773ZM93.4814 35.5V73H88.9404V35.5H93.4814ZM109.619 46.584L98.0957 58.9131L91.6504 65.6025L91.2842 60.793L95.8984 55.2754L104.102 46.584H109.619ZM105.493 73L96.0693 60.4023L98.4131 56.374L110.815 73H105.493ZM124.756 73.4883C122.917 73.4883 121.248 73.179 119.751 72.5605C118.27 71.9258 116.992 71.0387 115.918 69.8994C114.86 68.7601 114.046 67.4092 113.477 65.8467C112.907 64.2842 112.622 62.5752 112.622 60.7197V59.6943C112.622 57.5459 112.939 55.6335 113.574 53.957C114.209 52.2643 115.072 50.832 116.162 49.6602C117.253 48.4883 118.49 47.6012 119.873 46.999C121.257 46.3968 122.689 46.0957 124.17 46.0957C126.058 46.0957 127.686 46.4212 129.053 47.0723C130.436 47.7233 131.567 48.6348 132.446 49.8066C133.325 50.9622 133.976 52.3294 134.399 53.9082C134.823 55.4707 135.034 57.1797 135.034 59.0352V61.0615H115.308V57.375H130.518V57.0332C130.452 55.8613 130.208 54.722 129.785 53.6152C129.378 52.5085 128.727 51.597 127.832 50.8809C126.937 50.1647 125.716 49.8066 124.17 49.8066C123.145 49.8066 122.201 50.0264 121.338 50.4658C120.475 50.889 119.735 51.5238 119.116 52.3701C118.498 53.2165 118.018 54.25 117.676 55.4707C117.334 56.6914 117.163 58.0993 117.163 59.6943V60.7197C117.163 61.973 117.334 63.153 117.676 64.2598C118.034 65.3503 118.547 66.3105 119.214 67.1406C119.897 67.9707 120.719 68.6217 121.68 69.0938C122.656 69.5658 123.763 69.8018 125 69.8018C126.595 69.8018 127.946 69.4762 129.053 68.8252C130.16 68.1742 131.128 67.3034 131.958 66.2129L134.692 68.3857C134.123 69.2484 133.398 70.0703 132.52 70.8516C131.641 71.6328 130.558 72.2676 129.272 72.7559C128.003 73.2441 126.497 73.4883 124.756 73.4883ZM151.367 46.584V50.0508H137.085V46.584H151.367ZM141.919 40.1631H146.436V66.457C146.436 67.3522 146.574 68.0277 146.851 68.4834C147.127 68.9391 147.485 69.2402 147.925 69.3867C148.364 69.5332 148.836 69.6064 149.341 69.6064C149.715 69.6064 150.106 69.5739 150.513 69.5088C150.936 69.4274 151.253 69.3623 151.465 69.3135L151.489 73C151.131 73.1139 150.659 73.2197 150.073 73.3174C149.504 73.4313 148.812 73.4883 147.998 73.4883C146.891 73.4883 145.874 73.2686 144.946 72.8291C144.019 72.3896 143.278 71.6572 142.725 70.6318C142.188 69.5902 141.919 68.1904 141.919 66.4326V40.1631ZM172.046 65.9932C172.046 65.3421 171.899 64.7399 171.606 64.1865C171.33 63.6169 170.752 63.1042 169.873 62.6484C169.01 62.1764 167.708 61.7695 165.967 61.4277C164.502 61.1185 163.175 60.7523 161.987 60.3291C160.815 59.9059 159.814 59.3932 158.984 58.791C158.171 58.1888 157.544 57.4808 157.104 56.667C156.665 55.8532 156.445 54.901 156.445 53.8105C156.445 52.7689 156.673 51.7842 157.129 50.8564C157.601 49.9287 158.26 49.1068 159.106 48.3906C159.969 47.6745 161.003 47.113 162.207 46.7061C163.411 46.2992 164.754 46.0957 166.235 46.0957C168.351 46.0957 170.158 46.4701 171.655 47.2188C173.153 47.9674 174.3 48.9684 175.098 50.2217C175.895 51.4587 176.294 52.834 176.294 54.3477H171.777C171.777 53.6152 171.558 52.9072 171.118 52.2236C170.695 51.5238 170.068 50.946 169.238 50.4902C168.424 50.0345 167.424 49.8066 166.235 49.8066C164.982 49.8066 163.965 50.002 163.184 50.3926C162.419 50.7669 161.857 51.2471 161.499 51.833C161.157 52.4189 160.986 53.0374 160.986 53.6885C160.986 54.1768 161.068 54.6162 161.23 55.0068C161.41 55.3812 161.719 55.7311 162.158 56.0566C162.598 56.3659 163.216 56.6589 164.014 56.9355C164.811 57.2122 165.828 57.4889 167.065 57.7656C169.23 58.2539 171.012 58.8398 172.412 59.5234C173.812 60.207 174.854 61.0452 175.537 62.0381C176.221 63.0309 176.562 64.2354 176.562 65.6514C176.562 66.807 176.318 67.8649 175.83 68.8252C175.358 69.7855 174.666 70.6156 173.755 71.3154C172.86 71.999 171.785 72.5361 170.532 72.9268C169.295 73.3011 167.904 73.4883 166.357 73.4883C164.03 73.4883 162.061 73.0732 160.449 72.2432C158.838 71.4131 157.617 70.3389 156.787 69.0205C155.957 67.7021 155.542 66.3105 155.542 64.8457H160.083C160.148 66.0827 160.506 67.0674 161.157 67.7998C161.808 68.516 162.606 69.0286 163.55 69.3379C164.494 69.6309 165.43 69.7773 166.357 69.7773C167.594 69.7773 168.628 69.6146 169.458 69.2891C170.304 68.9635 170.947 68.516 171.387 67.9463C171.826 67.3766 172.046 66.7256 172.046 65.9932ZM193.457 73.4883C191.618 73.4883 189.95 73.179 188.452 72.5605C186.971 71.9258 185.693 71.0387 184.619 69.8994C183.561 68.7601 182.747 67.4092 182.178 65.8467C181.608 64.2842 181.323 62.5752 181.323 60.7197V59.6943C181.323 57.5459 181.641 55.6335 182.275 53.957C182.91 52.2643 183.773 50.832 184.863 49.6602C185.954 48.4883 187.191 47.6012 188.574 46.999C189.958 46.3968 191.39 46.0957 192.871 46.0957C194.759 46.0957 196.387 46.4212 197.754 47.0723C199.137 47.7233 200.269 48.6348 201.147 49.8066C202.026 50.9622 202.677 52.3294 203.101 53.9082C203.524 55.4707 203.735 57.1797 203.735 59.0352V61.0615H184.009V57.375H199.219V57.0332C199.154 55.8613 198.91 54.722 198.486 53.6152C198.079 52.5085 197.428 51.597 196.533 50.8809C195.638 50.1647 194.417 49.8066 192.871 49.8066C191.846 49.8066 190.902 50.0264 190.039 50.4658C189.176 50.889 188.436 51.5238 187.817 52.3701C187.199 53.2165 186.719 54.25 186.377 55.4707C186.035 56.6914 185.864 58.0993 185.864 59.6943V60.7197C185.864 61.973 186.035 63.153 186.377 64.2598C186.735 65.3503 187.248 66.3105 187.915 67.1406C188.599 67.9707 189.421 68.6217 190.381 69.0938C191.357 69.5658 192.464 69.8018 193.701 69.8018C195.296 69.8018 196.647 69.4762 197.754 68.8252C198.861 68.1742 199.829 67.3034 200.659 66.2129L203.394 68.3857C202.824 69.2484 202.1 70.0703 201.221 70.8516C200.342 71.6328 199.259 72.2676 197.974 72.7559C196.704 73.2441 195.199 73.4883 193.457 73.4883ZM224.585 68.4834V54.8848C224.585 53.8431 224.373 52.9398 223.95 52.1748C223.543 51.3936 222.925 50.7913 222.095 50.3682C221.265 49.945 220.239 49.7334 219.019 49.7334C217.879 49.7334 216.878 49.9287 216.016 50.3193C215.169 50.71 214.502 51.2227 214.014 51.8574C213.542 52.4922 213.306 53.1758 213.306 53.9082H208.789C208.789 52.9642 209.033 52.0283 209.521 51.1006C210.01 50.1729 210.71 49.3346 211.621 48.5859C212.549 47.821 213.656 47.2188 214.941 46.7793C216.243 46.3236 217.692 46.0957 219.287 46.0957C221.208 46.0957 222.9 46.4212 224.365 47.0723C225.846 47.7233 227.002 48.708 227.832 50.0264C228.678 51.3285 229.102 52.9642 229.102 54.9336V67.2383C229.102 68.1172 229.175 69.0531 229.321 70.0459C229.484 71.0387 229.72 71.8932 230.029 72.6094V73H225.317C225.09 72.4792 224.91 71.7874 224.78 70.9248C224.65 70.0459 224.585 69.2321 224.585 68.4834ZM225.366 56.9844L225.415 60.1582H220.85C219.564 60.1582 218.416 60.264 217.407 60.4756C216.398 60.6709 215.552 60.972 214.868 61.3789C214.185 61.7858 213.664 62.2985 213.306 62.917C212.948 63.5192 212.769 64.2272 212.769 65.041C212.769 65.8711 212.956 66.6279 213.33 67.3115C213.704 67.9951 214.266 68.5404 215.015 68.9473C215.78 69.3379 216.715 69.5332 217.822 69.5332C219.206 69.5332 220.426 69.2402 221.484 68.6543C222.542 68.0684 223.381 67.3522 223.999 66.5059C224.634 65.6595 224.976 64.8376 225.024 64.04L226.953 66.2129C226.839 66.8965 226.53 67.6533 226.025 68.4834C225.521 69.3135 224.845 70.111 223.999 70.876C223.169 71.6247 222.176 72.2513 221.021 72.7559C219.881 73.2441 218.595 73.4883 217.163 73.4883C215.373 73.4883 213.802 73.1383 212.451 72.4385C211.117 71.7386 210.075 70.8027 209.326 69.6309C208.594 68.4427 208.228 67.1162 208.228 65.6514C208.228 64.2354 208.504 62.9902 209.058 61.916C209.611 60.8255 210.409 59.9222 211.45 59.2061C212.492 58.4736 213.745 57.9202 215.21 57.5459C216.675 57.1715 218.311 56.9844 220.117 56.9844H225.366ZM247.266 46.584V50.0508H232.983V46.584H247.266ZM237.817 40.1631H242.334V66.457C242.334 67.3522 242.472 68.0277 242.749 68.4834C243.026 68.9391 243.384 69.2402 243.823 69.3867C244.263 69.5332 244.735 69.6064 245.239 69.6064C245.614 69.6064 246.004 69.5739 246.411 69.5088C246.834 69.4274 247.152 69.3623 247.363 69.3135L247.388 73C247.03 73.1139 246.558 73.2197 245.972 73.3174C245.402 73.4313 244.71 73.4883 243.896 73.4883C242.79 73.4883 241.772 73.2686 240.845 72.8291C239.917 72.3896 239.176 71.6572 238.623 70.6318C238.086 69.5902 237.817 68.1904 237.817 66.4326V40.1631ZM269.458 37.4531V79.5918H265.82V37.4531H269.458ZM294.971 37.4531V73H290.259V37.4531H294.971ZM309.863 53.4443V57.3018H293.945V53.4443H309.863ZM312.28 37.4531V41.3105H293.945V37.4531H312.28ZM332.837 66.8965V46.584H337.378V73H333.057L332.837 66.8965ZM333.691 61.3301L335.571 61.2812C335.571 63.0391 335.384 64.6667 335.01 66.1641C334.652 67.6452 334.066 68.931 333.252 70.0215C332.438 71.112 331.372 71.9665 330.054 72.585C328.735 73.1872 327.132 73.4883 325.244 73.4883C323.958 73.4883 322.778 73.3011 321.704 72.9268C320.646 72.5524 319.735 71.9746 318.97 71.1934C318.205 70.4121 317.611 69.3949 317.188 68.1416C316.781 66.8883 316.577 65.3828 316.577 63.625V46.584H321.094V63.6738C321.094 64.862 321.224 65.8467 321.484 66.6279C321.761 67.3929 322.127 68.0033 322.583 68.459C323.055 68.8984 323.576 69.2077 324.146 69.3867C324.731 69.5658 325.334 69.6553 325.952 69.6553C327.873 69.6553 329.395 69.2891 330.518 68.5566C331.641 67.8079 332.446 66.807 332.935 65.5537C333.439 64.2842 333.691 62.8763 333.691 61.3301ZM349.17 35.5V73H344.629V35.5H349.17ZM361.328 35.5V73H356.787V35.5H361.328ZM383.96 65.9932C383.96 65.3421 383.813 64.7399 383.521 64.1865C383.244 63.6169 382.666 63.1042 381.787 62.6484C380.924 62.1764 379.622 61.7695 377.881 61.4277C376.416 61.1185 375.09 60.7523 373.901 60.3291C372.729 59.9059 371.729 59.3932 370.898 58.791C370.085 58.1888 369.458 57.4808 369.019 56.667C368.579 55.8532 368.359 54.901 368.359 53.8105C368.359 52.7689 368.587 51.7842 369.043 50.8564C369.515 49.9287 370.174 49.1068 371.021 48.3906C371.883 47.6745 372.917 47.113 374.121 46.7061C375.326 46.2992 376.668 46.0957 378.149 46.0957C380.265 46.0957 382.072 46.4701 383.569 47.2188C385.067 47.9674 386.214 48.9684 387.012 50.2217C387.809 51.4587 388.208 52.834 388.208 54.3477H383.691C383.691 53.6152 383.472 52.9072 383.032 52.2236C382.609 51.5238 381.982 50.946 381.152 50.4902C380.339 50.0345 379.338 49.8066 378.149 49.8066C376.896 49.8066 375.879 50.002 375.098 50.3926C374.333 50.7669 373.771 51.2471 373.413 51.833C373.071 52.4189 372.9 53.0374 372.9 53.6885C372.9 54.1768 372.982 54.6162 373.145 55.0068C373.324 55.3812 373.633 55.7311 374.072 56.0566C374.512 56.3659 375.13 56.6589 375.928 56.9355C376.725 57.2122 377.743 57.4889 378.979 57.7656C381.144 58.2539 382.926 58.8398 384.326 59.5234C385.726 60.207 386.768 61.0452 387.451 62.0381C388.135 63.0309 388.477 64.2354 388.477 65.6514C388.477 66.807 388.232 67.8649 387.744 68.8252C387.272 69.7855 386.58 70.6156 385.669 71.3154C384.774 71.999 383.7 72.5361 382.446 72.9268C381.209 73.3011 379.818 73.4883 378.271 73.4883C375.944 73.4883 373.975 73.0732 372.363 72.2432C370.752 71.4131 369.531 70.3389 368.701 69.0205C367.871 67.7021 367.456 66.3105 367.456 64.8457H371.997C372.062 66.0827 372.42 67.0674 373.071 67.7998C373.722 68.516 374.52 69.0286 375.464 69.3379C376.408 69.6309 377.344 69.7773 378.271 69.7773C379.508 69.7773 380.542 69.6146 381.372 69.2891C382.218 68.9635 382.861 68.516 383.301 67.9463C383.74 67.3766 383.96 66.7256 383.96 65.9932ZM405.469 46.584V50.0508H391.187V46.584H405.469ZM396.021 40.1631H400.537V66.457C400.537 67.3522 400.675 68.0277 400.952 68.4834C401.229 68.9391 401.587 69.2402 402.026 69.3867C402.466 69.5332 402.938 69.6064 403.442 69.6064C403.817 69.6064 404.207 69.5739 404.614 69.5088C405.037 69.4274 405.355 69.3623 405.566 69.3135L405.591 73C405.233 73.1139 404.761 73.2197 404.175 73.3174C403.605 73.4313 402.913 73.4883 402.1 73.4883C400.993 73.4883 399.976 73.2686 399.048 72.8291C398.12 72.3896 397.38 71.6572 396.826 70.6318C396.289 69.5902 396.021 68.1904 396.021 66.4326V40.1631ZM426.343 68.4834V54.8848C426.343 53.8431 426.131 52.9398 425.708 52.1748C425.301 51.3936 424.683 50.7913 423.853 50.3682C423.022 49.945 421.997 49.7334 420.776 49.7334C419.637 49.7334 418.636 49.9287 417.773 50.3193C416.927 50.71 416.26 51.2227 415.771 51.8574C415.299 52.4922 415.063 53.1758 415.063 53.9082H410.547C410.547 52.9642 410.791 52.0283 411.279 51.1006C411.768 50.1729 412.467 49.3346 413.379 48.5859C414.307 47.821 415.413 47.2188 416.699 46.7793C418.001 46.3236 419.45 46.0957 421.045 46.0957C422.965 46.0957 424.658 46.4212 426.123 47.0723C427.604 47.7233 428.76 48.708 429.59 50.0264C430.436 51.3285 430.859 52.9642 430.859 54.9336V67.2383C430.859 68.1172 430.933 69.0531 431.079 70.0459C431.242 71.0387 431.478 71.8932 431.787 72.6094V73H427.075C426.847 72.4792 426.668 71.7874 426.538 70.9248C426.408 70.0459 426.343 69.2321 426.343 68.4834ZM427.124 56.9844L427.173 60.1582H422.607C421.322 60.1582 420.174 60.264 419.165 60.4756C418.156 60.6709 417.31 60.972 416.626 61.3789C415.942 61.7858 415.422 62.2985 415.063 62.917C414.705 63.5192 414.526 64.2272 414.526 65.041C414.526 65.8711 414.714 66.6279 415.088 67.3115C415.462 67.9951 416.024 68.5404 416.772 68.9473C417.537 69.3379 418.473 69.5332 419.58 69.5332C420.964 69.5332 422.184 69.2402 423.242 68.6543C424.3 68.0684 425.138 67.3522 425.757 66.5059C426.392 65.6595 426.733 64.8376 426.782 64.04L428.711 66.2129C428.597 66.8965 428.288 67.6533 427.783 68.4834C427.279 69.3135 426.603 70.111 425.757 70.876C424.927 71.6247 423.934 72.2513 422.778 72.7559C421.639 73.2441 420.353 73.4883 418.921 73.4883C417.131 73.4883 415.56 73.1383 414.209 72.4385C412.874 71.7386 411.833 70.8027 411.084 69.6309C410.352 68.4427 409.985 67.1162 409.985 65.6514C409.985 64.2354 410.262 62.9902 410.815 61.916C411.369 60.8255 412.166 59.9222 413.208 59.2061C414.25 58.4736 415.503 57.9202 416.968 57.5459C418.433 57.1715 420.068 56.9844 421.875 56.9844H427.124ZM448.535 69.7773C449.609 69.7773 450.602 69.5576 451.514 69.1182C452.425 68.6787 453.174 68.0765 453.76 67.3115C454.346 66.5303 454.679 65.6432 454.761 64.6504H459.058C458.976 66.2129 458.447 67.6696 457.471 69.0205C456.51 70.3551 455.249 71.4375 453.687 72.2676C452.124 73.0814 450.407 73.4883 448.535 73.4883C446.549 73.4883 444.816 73.1383 443.335 72.4385C441.87 71.7386 440.649 70.7783 439.673 69.5576C438.713 68.3369 437.988 66.9372 437.5 65.3584C437.028 63.7633 436.792 62.0788 436.792 60.3047V59.2793C436.792 57.5052 437.028 55.8288 437.5 54.25C437.988 52.6549 438.713 51.2471 439.673 50.0264C440.649 48.8057 441.87 47.8454 443.335 47.1455C444.816 46.4456 446.549 46.0957 448.535 46.0957C450.602 46.0957 452.409 46.5189 453.955 47.3652C455.501 48.1953 456.714 49.3346 457.593 50.7832C458.488 52.2155 458.976 53.8431 459.058 55.666H454.761C454.679 54.5755 454.37 53.5908 453.833 52.7119C453.312 51.833 452.596 51.1331 451.685 50.6123C450.789 50.0752 449.74 49.8066 448.535 49.8066C447.152 49.8066 445.988 50.0833 445.044 50.6367C444.116 51.1738 443.376 51.9062 442.822 52.834C442.285 53.7454 441.895 54.7627 441.65 55.8857C441.423 56.9925 441.309 58.1237 441.309 59.2793V60.3047C441.309 61.4603 441.423 62.5996 441.65 63.7227C441.878 64.8457 442.261 65.863 442.798 66.7744C443.351 67.6859 444.092 68.4183 445.02 68.9717C445.964 69.5088 447.135 69.7773 448.535 69.7773ZM468.677 35.5V73H464.136V35.5H468.677ZM484.814 46.584L473.291 58.9131L466.846 65.6025L466.479 60.793L471.094 55.2754L479.297 46.584H484.814ZM480.688 73L471.265 60.4023L473.608 56.374L486.011 73H480.688ZM514.722 37.4531V73H510.083V37.4531H514.722ZM526.147 37.4531V41.3105H498.682V37.4531H526.147ZM533.398 50.7344V73H528.882V46.584H533.276L533.398 50.7344ZM541.65 46.4375L541.626 50.6367C541.252 50.5553 540.894 50.5065 540.552 50.4902C540.226 50.4577 539.852 50.4414 539.429 50.4414C538.387 50.4414 537.467 50.6042 536.67 50.9297C535.872 51.2552 535.197 51.7109 534.644 52.2969C534.09 52.8828 533.651 53.5827 533.325 54.3965C533.016 55.194 532.812 56.0729 532.715 57.0332L531.445 57.7656C531.445 56.1706 531.6 54.6732 531.909 53.2734C532.235 51.8737 532.731 50.6367 533.398 49.5625C534.066 48.472 534.912 47.6257 535.938 47.0234C536.979 46.4049 538.216 46.0957 539.648 46.0957C539.974 46.0957 540.348 46.1364 540.771 46.2178C541.195 46.2829 541.488 46.3561 541.65 46.4375ZM560.425 68.4834V54.8848C560.425 53.8431 560.213 52.9398 559.79 52.1748C559.383 51.3936 558.765 50.7913 557.935 50.3682C557.104 49.945 556.079 49.7334 554.858 49.7334C553.719 49.7334 552.718 49.9287 551.855 50.3193C551.009 50.71 550.342 51.2227 549.854 51.8574C549.382 52.4922 549.146 53.1758 549.146 53.9082H544.629C544.629 52.9642 544.873 52.0283 545.361 51.1006C545.85 50.1729 546.549 49.3346 547.461 48.5859C548.389 47.821 549.495 47.2188 550.781 46.7793C552.083 46.3236 553.532 46.0957 555.127 46.0957C557.048 46.0957 558.74 46.4212 560.205 47.0723C561.686 47.7233 562.842 48.708 563.672 50.0264C564.518 51.3285 564.941 52.9642 564.941 54.9336V67.2383C564.941 68.1172 565.015 69.0531 565.161 70.0459C565.324 71.0387 565.56 71.8932 565.869 72.6094V73H561.157C560.929 72.4792 560.75 71.7874 560.62 70.9248C560.49 70.0459 560.425 69.2321 560.425 68.4834ZM561.206 56.9844L561.255 60.1582H556.689C555.404 60.1582 554.256 60.264 553.247 60.4756C552.238 60.6709 551.392 60.972 550.708 61.3789C550.024 61.7858 549.504 62.2985 549.146 62.917C548.787 63.5192 548.608 64.2272 548.608 65.041C548.608 65.8711 548.796 66.6279 549.17 67.3115C549.544 67.9951 550.106 68.5404 550.854 68.9473C551.619 69.3379 552.555 69.5332 553.662 69.5332C555.046 69.5332 556.266 69.2402 557.324 68.6543C558.382 68.0684 559.22 67.3522 559.839 66.5059C560.474 65.6595 560.815 64.8376 560.864 64.04L562.793 66.2129C562.679 66.8965 562.37 67.6533 561.865 68.4834C561.361 69.3135 560.685 70.111 559.839 70.876C559.009 71.6247 558.016 72.2513 556.86 72.7559C555.721 73.2441 554.435 73.4883 553.003 73.4883C551.213 73.4883 549.642 73.1383 548.291 72.4385C546.956 71.7386 545.915 70.8027 545.166 69.6309C544.434 68.4427 544.067 67.1162 544.067 65.6514C544.067 64.2354 544.344 62.9902 544.897 61.916C545.451 60.8255 546.248 59.9222 547.29 59.2061C548.332 58.4736 549.585 57.9202 551.05 57.5459C552.515 57.1715 554.15 56.9844 555.957 56.9844H561.206ZM576.953 46.584V73H572.412V46.584H576.953ZM572.07 39.5771C572.07 38.8447 572.29 38.2262 572.729 37.7217C573.185 37.2171 573.853 36.9648 574.731 36.9648C575.594 36.9648 576.253 37.2171 576.709 37.7217C577.181 38.2262 577.417 38.8447 577.417 39.5771C577.417 40.277 577.181 40.8792 576.709 41.3838C576.253 41.8721 575.594 42.1162 574.731 42.1162C573.853 42.1162 573.185 41.8721 572.729 41.3838C572.29 40.8792 572.07 40.277 572.07 39.5771ZM588.721 52.2236V73H584.204V46.584H588.477L588.721 52.2236ZM587.646 58.791L585.767 58.7178C585.783 56.9111 586.051 55.2428 586.572 53.7129C587.093 52.1667 587.826 50.8239 588.77 49.6846C589.714 48.5452 590.837 47.6663 592.139 47.0479C593.457 46.4131 594.914 46.0957 596.509 46.0957C597.811 46.0957 598.983 46.2747 600.024 46.6328C601.066 46.9746 601.953 47.528 602.686 48.293C603.434 49.0579 604.004 50.0508 604.395 51.2715C604.785 52.4759 604.98 53.9489 604.98 55.6904V73H600.439V55.6416C600.439 54.2581 600.236 53.1514 599.829 52.3213C599.422 51.4749 598.828 50.8646 598.047 50.4902C597.266 50.0996 596.305 49.9043 595.166 49.9043C594.043 49.9043 593.018 50.1403 592.09 50.6123C591.178 51.0843 590.389 51.7354 589.722 52.5654C589.071 53.3955 588.558 54.3477 588.184 55.4219C587.826 56.4798 587.646 57.6029 587.646 58.791ZM616.748 46.584V73H612.207V46.584H616.748ZM611.865 39.5771C611.865 38.8447 612.085 38.2262 612.524 37.7217C612.98 37.2171 613.647 36.9648 614.526 36.9648C615.389 36.9648 616.048 37.2171 616.504 37.7217C616.976 38.2262 617.212 38.8447 617.212 39.5771C617.212 40.277 616.976 40.8792 616.504 41.3838C616.048 41.8721 615.389 42.1162 614.526 42.1162C613.647 42.1162 612.98 41.8721 612.524 41.3838C612.085 40.8792 611.865 40.277 611.865 39.5771ZM628.516 52.2236V73H623.999V46.584H628.271L628.516 52.2236ZM627.441 58.791L625.562 58.7178C625.578 56.9111 625.846 55.2428 626.367 53.7129C626.888 52.1667 627.62 50.8239 628.564 49.6846C629.508 48.5452 630.632 47.6663 631.934 47.0479C633.252 46.4131 634.709 46.0957 636.304 46.0957C637.606 46.0957 638.778 46.2747 639.819 46.6328C640.861 46.9746 641.748 47.528 642.48 48.293C643.229 49.0579 643.799 50.0508 644.189 51.2715C644.58 52.4759 644.775 53.9489 644.775 55.6904V73H640.234V55.6416C640.234 54.2581 640.031 53.1514 639.624 52.3213C639.217 51.4749 638.623 50.8646 637.842 50.4902C637.061 50.0996 636.1 49.9043 634.961 49.9043C633.838 49.9043 632.812 50.1403 631.885 50.6123C630.973 51.0843 630.184 51.7354 629.517 52.5654C628.866 53.3955 628.353 54.3477 627.979 55.4219C627.62 56.4798 627.441 57.6029 627.441 58.791ZM668.75 46.584H672.852V72.4385C672.852 74.766 672.38 76.7516 671.436 78.3955C670.492 80.0394 669.173 81.2845 667.48 82.1309C665.804 82.9935 663.867 83.4248 661.67 83.4248C660.758 83.4248 659.684 83.2783 658.447 82.9854C657.227 82.7087 656.022 82.2285 654.834 81.5449C653.662 80.8776 652.677 79.9743 651.88 78.835L654.248 76.1494C655.355 77.484 656.51 78.4118 657.715 78.9326C658.936 79.4535 660.14 79.7139 661.328 79.7139C662.76 79.7139 663.997 79.4453 665.039 78.9082C666.081 78.3711 666.886 77.5736 667.456 76.5156C668.042 75.474 668.335 74.1882 668.335 72.6582V52.3945L668.75 46.584ZM650.562 60.085V59.5723C650.562 57.554 650.798 55.723 651.27 54.0791C651.758 52.4189 652.45 50.9948 653.345 49.8066C654.256 48.6185 655.355 47.707 656.641 47.0723C657.926 46.4212 659.375 46.0957 660.986 46.0957C662.646 46.0957 664.095 46.3887 665.332 46.9746C666.585 47.5443 667.643 48.3825 668.506 49.4893C669.385 50.5798 670.076 51.8981 670.581 53.4443C671.086 54.9906 671.436 56.7402 671.631 58.6934V60.9395C671.452 62.8763 671.102 64.6178 670.581 66.1641C670.076 67.7103 669.385 69.0286 668.506 70.1191C667.643 71.2096 666.585 72.0479 665.332 72.6338C664.079 73.2035 662.614 73.4883 660.938 73.4883C659.359 73.4883 657.926 73.1546 656.641 72.4873C655.371 71.82 654.281 70.8841 653.369 69.6797C652.458 68.4753 651.758 67.0592 651.27 65.4316C650.798 63.7878 650.562 62.0055 650.562 60.085ZM655.078 59.5723V60.085C655.078 61.4033 655.208 62.6403 655.469 63.7959C655.745 64.9515 656.16 65.9688 656.714 66.8477C657.284 67.7266 658.008 68.4183 658.887 68.9229C659.766 69.4111 660.815 69.6553 662.036 69.6553C663.534 69.6553 664.771 69.3379 665.747 68.7031C666.724 68.0684 667.497 67.2301 668.066 66.1885C668.652 65.1468 669.108 64.0156 669.434 62.7949V56.9111C669.255 56.016 668.978 55.1533 668.604 54.3232C668.245 53.4769 667.773 52.7282 667.188 52.0771C666.618 51.4098 665.91 50.8809 665.063 50.4902C664.217 50.0996 663.224 49.9043 662.085 49.9043C660.848 49.9043 659.782 50.1647 658.887 50.6855C658.008 51.1901 657.284 51.89 656.714 52.7852C656.16 53.6641 655.745 54.6895 655.469 55.8613C655.208 57.0169 655.078 58.2539 655.078 59.5723Z" fill="black"/>
<g filter="url(#filter0_f_1_21)">
<path d="M781.833 32.088C776.105 23.5085 764.904 19.1576 748.546 19.1576H748.519C732.187 19.1622 721.013 23.5149 715.309 32.0946C710.534 39.2761 709.923 48.4323 709.923 55.6054C709.923 62.7785 710.534 71.9336 715.309 79.1152C721.013 87.6938 732.187 92.0465 748.52 92.0531H748.552C764.909 92.0531 776.106 87.7033 781.834 79.1236C786.639 71.9262 787.256 62.7748 787.256 55.6064C787.256 48.4379 786.641 39.2865 781.835 32.0899L781.833 32.088Z" fill="url(#paint0_linear_1_21)"/>
</g>
<path d="M780.768 32.78C775.223 24.4755 764.381 20.2636 748.548 20.2636H748.521C732.712 20.2683 721.896 24.4811 716.376 32.7856C711.755 39.7372 711.162 48.5994 711.162 55.5424C711.162 62.4855 711.755 71.3468 716.376 78.2984C721.897 86.6019 732.713 90.8157 748.522 90.8213H748.552C764.385 90.8213 775.222 86.6103 780.767 78.3059C785.418 71.3394 786.015 62.4809 786.015 55.5424C786.015 48.6041 785.419 39.7466 780.768 32.78Z" fill="#09090A"/>
<g opacity="0.9">
<path d="M770.556 61.4744C770.556 54.6121 765.146 49.0491 758.472 49.0491C751.799 49.0491 746.389 54.6121 746.389 61.4744C746.389 68.3368 751.799 73.8998 758.472 73.8998C765.146 73.8998 770.556 68.3368 770.556 61.4744Z" fill="#42A5F5"/>
<path d="M754.187 55.6759L753.789 57.8279H762.109L761.839 59.2195H753.525L753.121 61.3649H761.441L760.976 63.8197L757.621 64.9857L754.713 63.8197L754.915 62.763H752.87L752.387 65.3401L757.193 67.273L762.733 65.3401L763.468 61.4551L763.615 60.6756L764.558 55.6759H754.187Z" fill="white"/>
</g>
<g opacity="0.9">
<path d="M751.222 61.4744C751.222 54.6121 745.812 49.0491 739.139 49.0491C732.465 49.0491 727.056 54.6121 727.056 61.4744C727.056 68.3368 732.465 73.8998 739.139 73.8998C745.812 73.8998 751.222 68.3368 751.222 61.4744Z" fill="#E44D26"/>
<path fill-rule="evenodd" clip-rule="evenodd" d="M736.509 59.821H739.138H739.145H743.231H743.767L743.719 60.3709L743.251 65.7625L743.221 66.1085L739.145 67.2705L739.138 67.272L739.136 67.273L735.056 66.1085L734.777 62.8929H736.776L736.918 64.5261L739.136 65.1421L739.138 65.1413L739.145 65.1396L741.359 64.525L741.59 61.8689H739.145H739.138H734.688L734.199 56.2253L734.151 55.6759H739.138H739.145H744.127L744.079 56.2253L743.988 57.2636L743.949 57.7236H739.145H739.138H736.327L736.509 59.821Z" fill="white"/>
</g>
<g opacity="0.9">
<path d="M760.889 44.9073C760.889 38.0449 755.479 32.4819 748.806 32.4819C742.132 32.4819 736.722 38.0449 736.722 44.9073C736.722 51.7696 742.132 57.3327 748.806 57.3327C755.479 57.3327 760.889 51.7696 760.889 44.9073Z" fill="#E5D130"/>
<path d="M742.35 47.8415L743.849 46.924C744.138 47.4427 744.401 47.8814 745.032 47.8814C745.637 47.8814 746.018 47.6434 746.018 46.7111V40.3806H747.859V46.7373C747.859 48.6656 746.741 49.5434 745.111 49.5434C744.535 49.5749 743.963 49.4291 743.47 49.1253C742.978 48.8215 742.587 48.3741 742.35 47.8415ZM748.859 47.6414L750.357 46.7635C750.524 47.1056 750.783 47.393 751.103 47.593C751.424 47.793 751.795 47.8972 752.172 47.8939C752.934 47.8939 753.42 47.508 753.42 46.976C753.42 46.3377 752.921 46.1114 752.079 45.7375L751.621 45.5403C750.293 44.9688 749.412 44.2504 749.412 42.7342C749.412 41.3376 750.464 40.274 752.107 40.274C752.639 40.235 753.171 40.3553 753.637 40.6202C754.102 40.8851 754.48 41.2827 754.723 41.7635L753.29 42.6947C753.196 42.456 753.032 42.2521 752.821 42.1094C752.61 41.967 752.36 41.8929 752.107 41.8969C751.996 41.8854 751.884 41.8977 751.778 41.9325C751.672 41.9673 751.575 42.0241 751.492 42.0992C751.409 42.1742 751.343 42.266 751.297 42.3685C751.251 42.4711 751.227 42.5821 751.226 42.6947C751.226 43.2534 751.567 43.4792 752.356 43.825L752.816 44.0246C754.38 44.7029 755.261 45.3945 755.261 46.9502C755.261 48.626 753.959 49.5439 752.211 49.5439C750.502 49.5439 749.398 48.7189 748.859 47.6414Z" fill="#09090A"/>
</g>
<defs>
<filter id="filter0_f_1_21" x="698.521" y="7.75619" width="100.136" height="95.6984" filterUnits="userSpaceOnUse" color-interpolation-filters="sRGB">
<feFlood flood-opacity="0" result="BackgroundImageFix"/>
<feBlend mode="normal" in="SourceGraphic" in2="BackgroundImageFix" result="shape"/>
<feGaussianBlur stdDeviation="5.70071" result="effect1_foregroundBlur_1_21"/>
</filter>
<linearGradient id="paint0_linear_1_21" x1="709.922" y1="55.6044" x2="787.255" y2="55.6044" gradientUnits="userSpaceOnUse">
<stop stop-color="#CE4623"/>
<stop offset="0.46875" stop-color="#CFBD2C"/>
<stop offset="1" stop-color="#3C95DD" stop-opacity="0.25"/>
</linearGradient>
</defs>
</svg>
